<svg width="22" height="22" viewBox="0 0 22 22" fill="none" xmlns="http://www.w3.org/2000/svg">
<path d="M16.4971 21.1165C17.7223 21.1165 18.8971 20.6299 19.7633 19.7634C20.6297 18.8973 21.1163 17.7224 21.1163 16.4972V7.91864C21.1146 6.86694 20.7539 5.8474 20.0938 5.02853C19.4338 4.2094 18.5142 3.64024 17.4869 3.41495V1.31979C17.4869 0.848305 17.2355 0.412571 16.8272 0.176711C16.4189 -0.0589037 15.9156 -0.0589037 15.5074 0.176711C15.0991 0.412584 14.8474 0.848331 14.8474 1.31979V3.2994H11.878V1.31979C11.878 0.848305 11.6265 0.412571 11.218 0.176711C10.8097 -0.0589037 10.3067 -0.0589037 9.89838 0.176711C9.48982 0.412584 9.23835 0.848331 9.23835 1.31979V3.2994H6.26897V1.31979C6.26897 0.848305 6.01725 0.412571 5.60895 0.176711C5.20065 -0.0589037 4.69741 -0.0589037 4.28917 0.176711C3.88086 0.412584 3.6294 0.848331 3.6294 1.31979V3.41495C2.60213 3.64025 1.68253 4.2094 1.02251 5.02853C0.362489 5.8474 0.00173995 6.86688 0 7.91864V16.4972C0 17.7224 0.486592 18.8972 1.35304 19.7634C2.21921 20.6299 3.39406 21.1165 4.61924 21.1165H16.4971ZM2.63937 16.4972V7.91864C2.63937 7.39354 2.84781 6.89008 3.21911 6.51876C3.5904 6.14746 4.09385 5.93903 4.61899 5.93903H16.497C17.0221 5.93903 17.5256 6.14746 17.8969 6.51876C18.2682 6.89006 18.4767 7.3935 18.4767 7.91864V16.4972C18.4767 17.0223 18.2682 17.5258 17.8969 17.8971C17.5256 18.2684 17.0222 18.4769 16.497 18.4769H4.61899C4.09389 18.4769 3.59042 18.2684 3.21911 17.8971C2.84781 17.5258 2.63937 17.0224 2.63937 16.4972Z" fill="white"/>
<path d="M7.50972 14.3233C8.05521 14.8706 8.79606 15.1782 9.5686 15.1782C10.3411 15.1782 11.082 14.8706 11.6275 14.3233L14.7917 11.1624V11.1626C15.1253 10.8288 15.2554 10.3427 15.1333 9.8871C15.0112 9.43122 14.6553 9.07526 14.1997 8.9532C13.7441 8.83112 13.2577 8.96151 12.9242 9.29505L9.7632 12.4593L9.56182 12.6474L8.19267 11.2747C7.85913 10.9411 7.37277 10.8107 6.91716 10.9331C6.46153 11.0551 6.10557 11.4111 5.98351 11.8667C5.86143 12.3223 5.99157 12.8087 6.32511 13.1422L7.50972 14.3233Z" fill="white"/>
</svg>
