<svg width="38" height="44" viewBox="0 0 38 44" fill="none" xmlns="http://www.w3.org/2000/svg">
<path d="M18.7762 24.1754C24.5205 24.1754 29.2145 19.9903 29.2145 14.8687V9.30671C29.2145 4.1851 24.5205 0 18.7762 0C13.0319 0 8.33795 4.1851 8.33795 9.30671V14.8687C8.39968 19.9899 13.0319 24.1754 18.7762 24.1754ZM18.7762 20.9814C15.1939 20.9814 12.2906 18.5585 11.982 15.4195H25.5704C25.3235 18.503 22.3585 20.9814 18.7762 20.9814ZM18.7762 3.24827C22.5437 3.24827 25.6322 6.00198 25.6322 9.36103V12.2248H11.9822V9.36103C11.9822 5.94691 15.0708 3.24827 18.7765 3.24827H18.7762Z" fill="#F58220"/>
<path d="M26.6826 23.1836C26.2501 23.1836 25.8179 23.3487 25.5093 23.5693L18.8385 28.856L12.0442 23.5693C11.7356 23.2941 11.303 23.1836 10.8709 23.1836C3.64453 23.1836 0 27.6444 0 36.4004V42.4031C0 43.2842 0.802978 44.0001 1.7912 44.0001H35.9481C36.9362 44.0001 37.7393 43.2842 37.7393 42.4031V36.4004C37.6775 25.4961 31.6862 23.1836 26.6832 23.1836H26.6826ZM34.0946 40.8608H3.58219V36.4551C3.58219 28.1396 6.9793 26.6526 10.253 26.4875L17.665 32.27C18.3445 32.8208 19.3327 32.8208 20.0122 32.27L27.3003 26.4875C30.3888 26.6526 34.0329 28.1395 34.0329 36.4551V40.8608H34.0946Z" fill="#F58220"/>
<path d="M28.473 29.9014H24.8289V32.9853H21.4318V36.1797H24.8289V39.2636H28.473V36.1797H31.5615V32.9853H28.473V29.9014Z" fill="#F58220"/>
</svg>
