<svg width="46" height="38" viewBox="0 0 46 38" fill="none" xmlns="http://www.w3.org/2000/svg">
<path d="M43.4815 16.9391C44.2974 15.0333 44.6819 12.9842 44.4418 10.8886C44.0573 7.26682 42.0897 3.98005 38.9687 1.93082C34.2157 -1.21454 27.6845 -0.451452 23.4584 3.74172L22.2091 4.98127L20.7686 3.5519C18.1764 0.979816 14.5752 -0.308134 10.9249 0.0734098C7.2747 0.406556 4.00927 2.36077 1.94593 5.45782C-1.22404 10.1739 -0.454985 16.6545 3.771 20.8478L20.1927 37.142C20.7686 37.7134 21.5376 38 22.2579 38C22.9782 38 23.7473 37.7134 24.3231 37.142L28.309 33.1871C30.0384 34.2349 32.0548 34.8062 34.2157 34.8062C40.507 34.8062 45.6445 29.7087 45.6445 23.4662C45.5939 21.0839 44.7776 18.7983 43.4815 16.9391ZM22.2089 35.093L5.83377 18.7987C2.61693 15.6069 1.99231 10.699 4.39322 7.12559C5.97821 4.74332 8.47477 3.26556 11.2603 2.98083C11.5961 2.93244 11.8849 2.93244 12.1719 2.93244C14.6216 2.93244 16.9737 3.88535 18.7033 5.60134L21.153 8.03202C21.4419 8.31864 21.8245 8.46008 22.209 8.46008C22.5936 8.46008 22.9781 8.31678 23.2651 8.03202L25.5215 5.79307C28.7384 2.60121 33.6846 1.98144 37.286 4.36371C39.6869 5.93639 41.1762 8.41356 41.4632 11.1775C41.5588 12.3202 41.4632 13.5113 41.1274 14.6076C39.2067 13.0833 36.757 12.1769 34.1158 12.1769C27.8245 12.1769 22.687 17.2745 22.687 23.517C22.687 26.5655 23.9362 29.3292 25.9038 31.3785L22.2089 35.093ZM34.1645 31.9011C29.5071 31.9011 25.6658 28.136 25.6658 23.5146C25.6658 18.8931 29.5072 15.0818 34.1645 15.0818C38.8218 15.0818 42.6633 18.845 42.6633 23.5146C42.6633 28.1841 38.8218 31.9011 34.1645 31.9011Z" fill="#F58220"/>
<path d="M36.4708 20.2742L33.1095 23.6094L31.8603 22.3699C31.2844 21.7985 30.3709 21.7985 29.7951 22.3699C29.2193 22.9412 29.2193 23.8476 29.7951 24.419L32.1004 26.7064C32.3892 26.993 32.7719 27.1344 33.1564 27.1344C33.5409 27.1344 33.9254 26.9911 34.2124 26.7064L38.6297 22.3234C39.2055 21.752 39.2055 20.8456 38.6297 20.2742C38.0069 19.7029 37.0466 19.7029 36.4708 20.2742Z" fill="#F58220"/>
</svg>
