<svg width="53" height="46" viewBox="0 0 53 46" fill="none" xmlns="http://www.w3.org/2000/svg">
<path d="M48.1271 42.0154L48.1274 42.0159C48.2655 42.2311 48.2751 42.5046 48.1527 42.7292C48.0304 42.9536 47.7954 43.0934 47.5394 43.0938H3.69874C3.44267 43.0934 3.20766 42.9536 3.0854 42.7292C2.96299 42.5046 2.97261 42.2311 3.11065 42.0159L3.11099 42.0154L7.32638 35.395H31.0179C31.6253 35.395 32.1178 34.9025 32.1178 34.2951C32.1178 33.6877 31.6253 33.1953 31.0179 33.1953H7.82156V11.7986C7.82156 11.1359 8.08478 10.5 8.55381 10.0314L8.55393 10.0313C9.02255 9.56225 9.65834 9.29904 10.3212 9.29904H22.0193C22.6267 9.29904 23.1192 8.80658 23.1192 8.19918C23.1192 7.59177 22.6267 7.09932 22.0193 7.09932H10.3212C9.07477 7.09932 7.87975 7.59449 6.99821 8.47559L6.99814 8.47566C6.11706 9.3572 5.62186 10.5522 5.62186 11.7986V33.9759L1.25273 40.8378L1.25267 40.8379C0.879348 41.425 0.729766 42.1267 0.830744 42.8152L1.02863 42.7862L0.830747 42.8152C0.931754 43.5034 1.27723 44.1324 1.80339 44.5874C2.32964 45.0424 3.00216 45.2929 3.69824 45.2934H3.69837H47.5395H47.5397C48.2357 45.2929 48.9082 45.0423 49.4345 44.5874C49.9607 44.1324 50.3061 43.5034 50.4072 42.8152L50.2093 42.7862L50.4072 42.8152C50.5081 42.1267 50.3586 41.4249 49.9852 40.8379L49.9852 40.8378L45.616 33.9759V24.3967C45.616 23.7893 45.1236 23.2968 44.5162 23.2968C43.9088 23.2968 43.4163 23.7893 43.4163 24.3967V33.1953H40.0169C39.4095 33.1953 38.917 33.6877 38.917 34.2951C38.917 34.9025 39.4095 35.395 40.0169 35.395H43.9117L48.1271 42.0154Z" fill="#F58220" stroke="#F58220" strokeWidth="0.4"/>
<path d="M33.5179 34.2949C33.5179 34.5866 33.6339 34.8663 33.8401 35.0725C34.0463 35.2787 34.3261 35.3947 34.6178 35.3947H36.4175C37.0249 35.3947 37.5173 34.9023 37.5173 34.2949C37.5173 33.6875 37.0249 33.195 36.4175 33.195H34.6178C34.0104 33.195 33.5179 33.6875 33.5179 34.2949Z" fill="#F58220" stroke="#F58220" strokeWidth="0.4"/>
<path d="M16.6198 22.7962H16.6201C17.9856 22.7962 19.2953 22.2536 20.2612 21.2881L20.2612 21.288C21.2267 20.3221 21.7694 19.0125 21.7694 17.647C21.7694 16.2815 21.2267 14.9718 20.2612 14.0059L20.2612 14.0059C19.2953 13.0404 17.9856 12.4978 16.6201 12.4978C15.2546 12.4978 13.945 13.0404 12.9791 14.0059L12.979 14.0059C12.0136 14.9718 11.4709 16.2815 11.4709 17.647L11.4709 17.6473C11.4732 19.0123 12.0167 20.3205 12.9816 21.2855C13.9465 22.2504 15.2548 22.794 16.6198 22.7962ZM16.6201 14.6975C17.4023 14.6975 18.1525 15.0081 18.706 15.5612C19.259 16.1146 19.5697 16.8648 19.5697 17.647C19.5697 18.4292 19.259 19.1794 18.706 19.7328C18.1525 20.2859 17.4024 20.5965 16.6201 20.5965C15.8379 20.5965 15.0878 20.2859 14.5343 19.7328C13.9812 19.1794 13.6706 18.4292 13.6706 17.647C13.6706 16.8648 13.9812 16.1147 14.5343 15.5612C15.0878 15.0081 15.8379 14.6975 16.6201 14.6975Z" fill="#F58220" stroke="#F58220" strokeWidth="0.4"/>
<path d="M20.7146 26.6008L20.8561 26.4594L20.7146 26.6008C20.8459 26.7321 20.9197 26.9101 20.9197 27.0956V28.8953C20.9197 29.187 21.0357 29.4668 21.2419 29.673C21.4481 29.8792 21.7279 29.9952 22.0196 29.9952C22.3113 29.9952 22.5911 29.8792 22.7972 29.673C23.0034 29.4668 23.1195 29.187 23.1195 28.8953V27.0956C23.1195 26.3268 22.8141 25.5891 22.2699 25.0454C21.7262 24.5013 20.9887 24.196 20.2199 24.196H13.021C12.2522 24.196 11.5146 24.5013 10.9708 25.0455C10.4267 25.5892 10.1214 26.3268 10.1214 27.0956V28.8953C10.1214 29.5027 10.6138 29.9952 11.2212 29.9952C11.8286 29.9952 12.3211 29.5027 12.3211 28.8953V27.0956C12.3211 26.7091 12.6345 26.3957 13.021 26.3957H20.2198C20.4053 26.3957 20.5834 26.4695 20.7146 26.6008Z" fill="#F58220" stroke="#F58220" strokeWidth="0.4"/>
<path d="M41.8036 10.8859L41.8037 10.8858C42.5161 10.173 42.9164 9.20686 42.9164 8.19906C42.9164 7.19125 42.5161 6.22514 41.8037 5.51232L41.8036 5.51223C41.0908 4.79988 40.1247 4.39961 39.1169 4.39961C38.1091 4.39961 37.143 4.79988 36.4302 5.51223L36.4301 5.51232C35.7177 6.22513 35.3175 7.19125 35.3175 8.19906C35.3175 9.20687 35.7177 10.173 36.4301 10.8858L36.4302 10.8859C37.143 11.5982 38.1091 11.9985 39.1169 11.9985C40.1247 11.9985 41.0908 11.5982 41.8036 10.8859ZM39.1169 6.59935C39.541 6.59935 39.948 6.76806 40.2479 7.06802C40.5478 7.36802 40.7166 7.77501 40.7166 8.19901C40.7166 8.62304 40.5479 9.03007 40.2479 9.32998C39.9479 9.62993 39.5409 9.79868 39.1169 9.79868C38.6929 9.79868 38.2858 9.62997 37.9859 9.33001C37.686 9.03001 37.5172 8.62302 37.5172 8.19901C37.5172 7.77499 37.686 7.36796 37.9859 7.06805C38.2859 6.7681 38.6929 6.59935 39.1169 6.59935Z" fill="#F58220" stroke="#F58220" strokeWidth="0.4"/>
<path d="M33.5179 16.2973V17.1971C33.5179 17.8045 34.0104 18.297 34.6178 18.297C35.2252 18.297 35.7177 17.8045 35.7177 17.1971V16.2973C35.7177 15.9108 36.031 15.5974 36.4175 15.5974H41.8167C42.0022 15.5974 42.1802 15.6712 42.3115 15.8025L42.4472 15.6667L42.3115 15.8025C42.4427 15.9337 42.5165 16.1118 42.5165 16.2973V17.1971C42.5165 17.8045 43.009 18.297 43.6164 18.297C44.2238 18.297 44.7163 17.8045 44.7163 17.1971V16.2973C44.7163 15.5285 44.4109 14.7908 43.8667 14.2471C43.323 13.7029 42.5855 13.3977 41.8167 13.3977H36.4175C35.6487 13.3977 34.9111 13.703 34.3674 14.2471C33.8232 14.7908 33.5179 15.5284 33.5179 16.2973Z" fill="#F58220" stroke="#F58220" strokeWidth="0.4"/>
<path d="M47.3755 0.802832L47.3748 0.8H47.2158H31.0184C29.772 0.8 28.577 1.29518 27.6954 2.17627L27.6953 2.17635C26.8143 3.05788 26.3191 4.2529 26.3191 5.4993V16.8338L23.8397 20.1369H23.8397L23.8393 20.1375C23.5897 20.4724 23.551 20.9197 23.74 21.2924C23.9263 21.6617 24.3048 21.8958 24.7189 21.8968H24.7194H30.1186C30.726 21.8968 31.2184 21.4044 31.2184 20.797C31.2184 20.1896 30.726 19.6971 30.1186 19.6971H26.9191L28.2986 17.8576L28.2987 17.8575C28.4414 17.667 28.5188 17.4356 28.5188 17.1976V5.4994C28.5188 4.83666 28.782 4.20079 29.251 3.73217L29.2512 3.73204C29.7198 3.26302 30.3556 2.9998 31.0184 2.9998H47.2159C47.8786 2.9998 48.5145 3.26302 48.9831 3.73204L48.9832 3.73217C49.4522 4.20079 49.7155 4.83658 49.7155 5.4994V17.1976C49.7155 17.8603 49.4522 18.4962 48.9832 18.9648L48.9831 18.9649C48.5145 19.434 47.8787 19.6972 47.2159 19.6972H37.3174C36.71 19.6972 36.2176 20.1896 36.2176 20.797C36.2176 21.4044 36.71 21.8969 37.3174 21.8969H47.2159C48.4623 21.8969 49.6573 21.4017 50.5388 20.5206L50.5389 20.5205C51.42 19.639 51.9152 18.444 51.9152 17.1976V5.49942C51.9152 4.25303 51.42 3.05801 50.5389 2.17647L50.5388 2.1764C49.695 1.333 48.5639 0.843187 47.3755 0.802832Z" fill="#F58220" stroke="#F58220" strokeWidth="0.4"/>
<path d="M33.7177 21.8967C34.3251 21.8967 34.8175 21.4042 34.8175 20.7968C34.8175 20.1894 34.3251 19.697 33.7177 19.697C33.1103 19.697 32.6178 20.1894 32.6178 20.7968C32.6178 21.4042 33.1103 21.8967 33.7177 21.8967Z" fill="#F58220" stroke="#F58220" strokeWidth="0.4"/>
</svg>
