<svg width="18" height="18" viewBox="0 0 18 18" fill="none" xmlns="http://www.w3.org/2000/svg">
<path d="M14.0625 18.0001C15.1068 18.0001 16.1082 17.5853 16.8466 16.8468C17.5852 16.1084 18 15.107 18 14.0626V6.75002C17.9985 5.85352 17.691 4.98444 17.1284 4.28642C16.5658 3.58818 15.7819 3.10302 14.9062 2.91097V1.12502C14.9062 0.723113 14.6919 0.351684 14.3438 0.150632C13.9958 -0.0502107 13.5668 -0.0502107 13.2188 0.150632C12.8708 0.351695 12.6562 0.723135 12.6562 1.12502V2.81248H10.125V1.12502C10.125 0.723113 9.91068 0.351684 9.56242 0.150632C9.21438 -0.0502107 8.78563 -0.0502107 8.43758 0.150632C8.08932 0.351695 7.87496 0.723135 7.87496 1.12502V2.81248H5.3438V1.12502C5.3438 0.723113 5.12922 0.351684 4.78118 0.150632C4.43314 -0.0502107 4.00417 -0.0502107 3.65617 0.150632C3.30813 0.351695 3.09378 0.723135 3.09378 1.12502V2.91097C2.21811 3.10302 1.43422 3.58818 0.871608 4.28642C0.308993 4.98444 0.00148317 5.85347 0 6.75002V14.0626C0 15.107 0.414781 16.1084 1.15336 16.8468C1.8917 17.5853 2.89317 18.0001 3.93754 18.0001H14.0625ZM2.24986 14.0626V6.75002C2.24986 6.30241 2.42753 5.87324 2.74403 5.55672C3.06053 5.24022 3.48968 5.06255 3.93732 5.06255H14.0624C14.51 5.06255 14.9392 5.24022 15.2557 5.55672C15.5722 5.87323 15.7499 6.30237 15.7499 6.75002V14.0626C15.7499 14.5102 15.5722 14.9394 15.2557 15.2559C14.9392 15.5724 14.5101 15.75 14.0624 15.75H3.93732C3.48971 15.75 3.06055 15.5724 2.74403 15.2559C2.42753 14.9394 2.24986 14.5102 2.24986 14.0626Z" fill="#065BAA"/>
<path d="M6.40186 12.2092C6.86685 12.6757 7.49836 12.938 8.15689 12.938C8.81541 12.938 9.44691 12.6757 9.91191 12.2092L12.6092 9.51475V9.51497C12.8935 9.23044 13.0044 8.81607 12.9004 8.4277C12.7963 8.0391 12.4929 7.73566 12.1045 7.63162C11.7161 7.52755 11.3016 7.6387 11.0172 7.92302L8.32277 10.6203L8.15111 10.7806L6.98402 9.61048C6.6997 9.32616 6.28512 9.21501 5.89675 9.31929C5.50836 9.42336 5.20493 9.72678 5.10089 10.1152C4.99682 10.5035 5.10776 10.9181 5.39208 11.2024L6.40186 12.2092Z" fill="#065BAA"/>
</svg>
