<svg width="31" height="22" viewBox="0 0 31 22" fill="none" xmlns="http://www.w3.org/2000/svg">
<path d="M20.7149 2.12495H19.0898C18.4022 0.843729 17.0586 0 15.5899 0H13.84C12.3401 0 11.0277 0.843729 10.3401 2.12495H8.71505C6.5276 2.12495 4.74646 3.90615 4.74646 6.09353V12.6247C4.74646 14.8122 6.52767 16.5933 8.71505 16.5933H20.746C22.9334 16.5933 24.7146 14.8121 24.7146 12.6247V6.09415C24.6833 3.9067 22.9022 2.12531 20.7147 2.12531L20.7149 2.12495ZM22.9336 12.6252C22.9336 13.8439 21.9336 14.8439 20.7149 14.8439H8.68392C7.46514 14.8439 6.46523 13.8439 6.46523 12.6252V6.09396C6.46523 4.87518 7.46514 3.87527 8.68392 3.87527H10.8714C11.2464 3.87527 11.5902 3.62517 11.6838 3.28162C11.9964 2.37539 12.8401 1.75029 13.8088 1.75029H15.5587C16.5274 1.75029 17.3711 2.37515 17.6837 3.28162C17.8086 3.62541 18.1212 3.87527 18.4962 3.87527H20.6836C21.9024 3.87527 22.9023 4.87518 22.9023 6.09396V12.6252H22.9336Z" fill="black"/>
<path d="M14.7153 4.28125C12.0279 4.28125 9.84045 6.46869 9.84045 9.15607C9.84045 11.8434 12.0279 14.0309 14.7153 14.0309C17.4026 14.0309 19.5901 11.8434 19.5901 9.15607C19.5901 6.46869 17.4026 4.28125 14.7153 4.28125ZM14.7153 12.3127C12.9966 12.3127 11.5904 10.9065 11.5904 9.1878C11.5904 7.4691 12.9966 6.06294 14.7153 6.06294C16.434 6.06294 17.8401 7.4691 17.8401 9.1878C17.8401 10.9065 16.434 12.3127 14.7153 12.3127Z" fill="black"/>
<path d="M29.5587 12.937C29.1212 12.937 28.7774 13.2808 28.7774 13.7183C28.7774 17.2494 22.5587 20.2184 15.184 20.2184C13.7154 20.2184 12.2465 20.0935 10.8716 19.8746L12.2153 19.1245L10.278 18.6558C9.49666 18.4684 8.74662 18.2808 8.02807 18.0622C6.30937 17.5935 4.6531 17.0935 3.09076 16.5623L0.653198 15.7186L2.21578 17.7499C2.43464 18.0312 2.62203 18.2498 2.77819 18.4687C3.71561 19.5938 4.77826 20.6874 5.90305 21.6872L6.24684 21.9998L6.68433 21.8124C7.37194 21.5311 8.02805 21.25 8.65316 20.9374C10.6532 21.4374 12.8719 21.6874 15.1215 21.6874C23.6217 21.6874 30.2774 18.1563 30.2774 13.6249C30.3396 13.2809 29.9958 12.9371 29.5583 12.9371L29.5587 12.937Z" fill="black"/>
</svg>
