<svg width="45" height="39" viewBox="0 0 45 39" fill="none" xmlns="http://www.w3.org/2000/svg">
<path d="M0 19.2159V4.80398C0 3.91923 0.82066 3.20265 1.83393 3.20265H7.33571V1.60133C7.33571 0.716574 8.15637 0 9.16964 0C10.1829 0 11.0036 0.716574 11.0036 1.60133V8.00663C11.0036 8.89138 10.1829 9.60796 9.16964 9.60796C8.15637 9.60796 7.33571 8.89138 7.33571 8.00663V6.4053H3.66785V12.8106H36.6786C37.6918 12.8106 38.5125 13.5272 38.5125 14.4119C38.5125 15.2967 37.6918 16.0133 36.6786 16.0133H3.66785V19.2159C3.66785 20.1007 2.84719 20.8172 1.83393 20.8172C0.82066 20.8172 0 20.1007 0 19.2159Z" fill="white"/>
<path d="M44.0144 4.80398V30.4252C44.0144 32.5489 43.0493 34.5846 41.3277 36.0859C39.6084 37.5892 37.277 38.4319 34.8447 38.4319H9.16969C6.73747 38.4319 4.40606 37.5892 2.68669 36.0859C0.965086 34.5847 0 32.549 0 30.4252V25.6212C0 24.7365 0.82066 24.0199 1.83393 24.0199C2.84719 24.0199 3.66785 24.7365 3.66785 25.6212V30.4252C3.66785 33.0774 6.13218 35.2292 9.16964 35.2292H34.8446C37.8821 35.2292 40.3464 33.0774 40.3464 30.4252V6.4053H36.6785V8.00663C36.6785 8.89138 35.8579 9.60796 34.8446 9.60796C33.8313 9.60796 33.0107 8.89138 33.0107 8.00663V1.60133C33.0107 0.716574 33.8313 0 34.8446 0C35.8579 0 36.6785 0.716574 36.6785 1.60133V3.20265H42.1803C42.6663 3.20265 43.134 3.37079 43.4778 3.67104C43.8217 3.97129 44.0144 4.37964 44.0144 4.80398Z" fill="white"/>
<path d="M12.8379 4.80396C12.8379 3.91921 13.6586 3.20264 14.6718 3.20264H29.3432C30.3565 3.20264 31.1772 3.91921 31.1772 4.80396C31.1772 5.68871 30.3565 6.40529 29.3432 6.40529H14.6718C13.6586 6.40529 12.8379 5.68871 12.8379 4.80396Z" fill="white"/>
</svg>
