<svg width="26" height="24" viewBox="0 0 26 24" fill="none" xmlns="http://www.w3.org/2000/svg">
<path d="M12.8523 5.56543C9.07427 5.56543 6 8.63864 6 12.4167C6 16.1947 9.07321 19.268 12.8523 19.268C16.6314 19.268 19.7046 16.1947 19.7046 12.4167C19.7046 8.63867 16.63 5.56543 12.8523 5.56543ZM12.8523 17.3399C10.1381 17.3399 7.93017 15.1307 7.93017 12.4177C7.93017 9.70352 10.1393 7.49559 12.8523 7.49559C15.5665 7.49559 17.7744 9.70472 17.7744 12.4177C17.7744 15.1306 15.5666 17.3399 12.8523 17.3399Z" fill="black"/>
<path d="M14.3655 10.6644L12.2515 12.3658L11.7236 11.6933C11.3941 11.274 10.7885 11.2003 10.3692 11.5299C9.94993 11.8594 9.87757 12.465 10.2058 12.8843L11.3365 14.3244C11.4946 14.5267 11.7303 14.658 11.9849 14.6861C12.0211 14.6902 12.0572 14.6928 12.0947 14.6928C12.3131 14.6928 12.5274 14.6192 12.6989 14.4798L15.5739 12.1635C15.9892 11.8286 16.0535 11.2231 15.7212 10.8078C15.389 10.3965 14.7795 10.3282 14.3655 10.6644Z" fill="black"/>
<path d="M21.7154 0.911105H19.5534V0.77176C19.5534 0.345145 19.2082 0 18.7816 0C18.355 0 18.0099 0.345145 18.0099 0.77176V0.911105H13.5508V0.77176C13.5508 0.345145 13.2056 0 12.779 0C12.3524 0 12.0073 0.345145 12.0073 0.77176V0.911105H7.54821V0.77176C7.54821 0.345145 7.20307 0 6.77645 0C6.34984 0 6.00469 0.345145 6.00469 0.77176V0.911105H3.84055C1.72249 0.911105 0 2.63362 0 4.75166V19.1718C0 21.2899 1.72251 23.0124 3.84055 23.0124H21.7144C23.8325 23.0124 25.5549 21.2899 25.5549 19.1718L25.556 4.75056C25.5549 2.63249 23.8334 0.911105 21.7154 0.911105ZM24.0114 19.1707C24.0114 20.4377 22.9813 21.4678 21.7154 21.4678H3.84044C2.57347 21.4678 1.54445 20.4367 1.54445 19.1707V4.75056C1.54445 3.48358 2.57454 2.4535 3.84044 2.4535H6.00244V2.59285C6.00244 3.01946 6.34759 3.36461 6.7742 3.36461C7.20082 3.36461 7.54596 3.01946 7.54596 2.59285V2.4535H12.005V2.59285C12.005 3.01946 12.3502 3.36461 12.7768 3.36461C13.2034 3.36461 13.5485 3.01946 13.5485 2.59285V2.4535H18.0076V2.59285C18.0076 3.01946 18.3527 3.36461 18.7794 3.36461C19.206 3.36461 19.5511 3.01946 19.5511 2.59285V2.4535H21.7131C22.9801 2.4535 24.0091 3.48465 24.0091 4.75056V19.1707H24.0114Z" fill="black"/>
</svg>
