<svg width="51" height="45" viewBox="0 0 51 45" fill="none" xmlns="http://www.w3.org/2000/svg">
<path d="M17.0762 22.8093H16.8028C16.256 22.8093 15.7093 22.9725 15.2714 23.2967L10.0215 26.9313V24.3267C10.0215 23.9473 9.85703 23.568 9.58364 23.2967C9.31025 23.0255 8.92795 22.8623 8.54565 22.8623C5.48283 22.8623 2.96909 20.3128 2.96909 17.1657V8.70337C2.96909 5.55627 5.48513 3.00681 8.54565 3.00681H24.0199C27.0827 3.00681 29.5965 5.55627 29.5965 8.70337V13.8023C29.5965 14.0184 29.7609 14.8322 30.6344 14.8322C31.1812 14.8322 31.6724 14.3978 31.6724 13.8023L31.6746 8.70337C31.6746 4.47121 28.285 1 24.0755 1H8.60126C4.39153 1 1 4.47132 1 8.70337V17.1679C1 21.2369 4.11618 24.6 8.05229 24.8713V27.692C8.05229 28.3426 8.38121 28.8851 8.98137 29.2115C9.52815 29.4828 10.1838 29.4277 10.7306 29.1034L16.4739 24.9793C16.5829 24.9242 16.6918 24.8713 16.8028 24.8713H17.0762C17.623 24.8713 18.1142 24.4368 18.1142 23.8413C18.1142 23.6252 18.0587 23.4069 17.8964 23.2437C17.7319 22.9724 17.4585 22.8093 17.0762 22.8093Z" fill="#F58220" stroke="#F58220" strokeWidth="0.5"/>
<path d="M42.72 16.2988H27.2457C23.8561 16.2988 21.0136 18.577 20.0288 21.669C19.6465 22.8092 19.6465 23.8942 19.6465 24.0574V32.5219C19.6465 36.699 23.0916 40.1705 27.2456 40.1705H34.4625C34.5714 40.1705 34.6803 40.2256 34.7914 40.2786L40.5883 44.3475C41.1906 44.782 41.8463 44.6739 42.3375 44.4556C42.8843 44.1844 43.2666 43.5867 43.2666 42.9361V40.1705C47.2029 39.8992 50.3189 36.5359 50.3189 32.4671L50.321 24.0579C50.321 19.7707 46.9295 16.2988 42.72 16.2988ZM48.2965 32.4667C48.2965 35.6138 45.7805 38.1633 42.72 38.1633C41.8998 38.1633 41.2441 38.8139 41.2441 39.6828V42.2874L35.9942 38.6529C35.5564 38.3265 35.0096 38.1654 34.4628 38.1654L27.2459 38.1633C24.1831 38.1633 21.6694 35.6139 21.6694 32.4668V24.0576C21.6694 20.9105 24.1854 18.361 27.2459 18.361H42.7202C45.783 18.361 48.2967 20.9105 48.2967 24.0576L48.2965 32.4667Z" fill="#F58220" stroke="#F58220" strokeWidth="0.5"/>
<path d="M18.3365 12.8805C18.3365 15.5571 14.2891 15.5571 14.2891 12.8805C14.2891 10.2039 18.3365 10.2039 18.3365 12.8805Z" fill="#F58220" stroke="#F58220" strokeWidth="0.5"/>
<path d="M10.6202 12.8805C10.6202 15.5571 6.5749 15.5571 6.5749 12.8805C6.5749 10.2039 10.6202 10.2039 10.6202 12.8805Z" fill="#F58220" stroke="#F58220" strokeWidth="0.5"/>
<path d="M26.1015 12.8805C26.1015 15.5571 22.0541 15.5571 22.0541 12.8805C22.0541 10.2039 26.1015 10.2039 26.1015 12.8805Z" fill="#F58220" stroke="#F58220" strokeWidth="0.5"/>
<path d="M44.4124 25.0234H26.1886C25.6738 25.0234 25.2114 25.5864 25.2114 26.3581C25.2114 27.0611 25.6236 27.6927 26.1886 27.6927H44.4104C44.9251 27.6927 45.3876 27.1297 45.3876 26.3581C45.3393 25.5864 44.9272 25.0234 44.4124 25.0234Z" fill="#F58220" stroke="#F58220" strokeWidth="0.5"/>
<path d="M32.5706 30.3618H25.9241C25.5487 30.3618 25.2114 30.9248 25.2114 31.6965C25.2114 32.4709 25.512 33.0311 25.9241 33.0311H32.5691C32.9446 33.0311 33.2819 32.4681 33.2819 31.6965C33.2833 30.922 32.9461 30.3618 32.5706 30.3618Z" fill="#F58220" stroke="#F58220" strokeWidth="0.5"/>
</svg>
