<svg width="22" height="22" viewBox="0 0 22 22" fill="none" xmlns="http://www.w3.org/2000/svg">
<path d="M21.6353 19.8716L15.6323 13.8636L15.7504 13.6975C16.8025 12.2193 17.3588 10.4835 17.3588 8.67681C17.3598 3.89303 13.4667 0 8.67992 0C3.89414 0 0 3.89303 0 8.67681C0 13.4616 3.89316 17.3536 8.67992 17.3536C10.4853 17.3536 12.2213 16.7979 13.7011 15.7456L13.8702 15.6253L19.8742 21.6352C20.1096 21.8701 20.4229 22 20.7553 22C21.0877 22 21.4 21.8701 21.6354 21.6352C22.1215 21.1492 22.1215 20.3576 21.6353 19.8716ZM13.726 12.2547L13.1169 13.1102L12.2608 13.7185C11.2048 14.469 9.96638 14.8662 8.67975 14.8662C5.26401 14.8662 2.48631 12.0896 2.48631 8.67688C2.48631 5.26419 5.265 2.48754 8.67975 2.48754C12.0955 2.48754 14.8732 5.26419 14.8732 8.67688C14.8732 9.96212 14.4774 11.1994 13.726 12.2547Z" fill="#065BAA"/>
</svg>
