<svg width="23" height="23" viewBox="0 0 23 23" fill="none" xmlns="http://www.w3.org/2000/svg">
<path d="M22.1404 16.2183L19.3691 13.4542C18.8214 12.8881 18.16 12.5911 17.4595 12.5911C16.7627 12.5911 16.0976 12.8881 15.5331 13.4468L14.0892 14.8854C14.0165 14.8483 13.9476 14.813 13.8824 14.7815C13.7129 14.698 13.5489 14.6144 13.4092 14.5263C11.9448 13.6 10.61 12.3869 9.32725 10.8211C8.76088 10.1083 8.36964 9.51056 8.08646 8.92026C8.45161 8.5787 8.79629 8.23159 9.12233 7.89745C9.2602 7.75823 9.40366 7.61437 9.54431 7.47516C10.1219 6.89971 10.4274 6.2296 10.4274 5.53722C10.4274 4.84112 10.1219 4.17101 9.54431 3.59929L8.16751 2.22751C8.01102 2.07159 7.86199 1.92122 7.7092 1.76067L7.70174 1.75325C7.40179 1.4451 7.07761 1.11747 6.75344 0.818612C6.20383 0.282153 5.5471 0 4.8531 0C4.16377 0 3.50051 0.28586 2.93414 0.824196L1.19964 2.55237C0.499127 3.24385 0.102286 4.08843 0.0212531 5.06288C-0.0718988 6.22305 0.139557 7.44818 0.687305 8.91276C1.5117 11.1449 2.75345 13.21 4.59228 15.4124C6.82052 18.0669 9.51268 20.1663 12.5894 21.6542L12.5913 21.6561C13.7818 22.2176 15.3748 22.8766 17.1371 22.9907H17.1576C17.26 22.9954 17.3644 23 17.4761 23C18.7411 23 19.7602 22.5638 20.592 21.6653C20.606 21.6486 20.6246 21.6301 20.6432 21.605C20.8761 21.3284 21.1416 21.0686 21.4257 20.7975L21.4909 20.7344C21.7564 20.482 21.966 20.2731 22.1523 20.0801C22.7093 19.5028 23.0019 18.8318 23 18.1384C23 17.4423 22.7019 16.7787 22.1383 16.2172L22.1404 16.2183ZM1.94301 5.22725C1.98959 4.70005 2.18706 4.28054 2.56249 3.90743L4.27837 2.19781C4.46654 2.01683 4.66496 1.91937 4.84846 1.91937C5.07203 1.91937 5.27044 2.07251 5.39621 2.19967L5.41018 2.21359C5.67102 2.4549 5.92251 2.71013 6.188 2.97931L6.3091 3.10182C6.38828 3.1835 6.46933 3.26425 6.55129 3.34779C6.63047 3.42668 6.70965 3.50743 6.78883 3.5891L8.16937 4.96461C8.31376 5.10847 8.48609 5.32657 8.48609 5.54469C8.48609 5.7628 8.31375 5.9809 8.16937 6.12477C8.09671 6.19717 8.02498 6.26863 7.95232 6.34288C7.88246 6.41528 7.81073 6.48675 7.73807 6.55914L7.64026 6.6566C7.25088 7.04826 6.88106 7.41951 6.48329 7.77499L6.44417 7.81397C5.84055 8.41539 6.04825 9.03724 6.11627 9.24144C6.12092 9.25815 6.12558 9.26929 6.13024 9.28321L6.13955 9.30641C6.51682 10.2067 7.03382 11.0467 7.8163 12.0277L7.81816 12.0295C9.22662 13.7605 10.7134 15.1081 12.3639 16.155C12.5456 16.2729 12.7291 16.3666 12.9089 16.4539C12.9415 16.4706 12.9759 16.4864 13.0095 16.5049L13.0113 16.5068C13.1809 16.5903 13.3448 16.6738 13.4846 16.762L13.5265 16.7852C13.5405 16.7926 13.5544 16.8019 13.5684 16.8084C13.7733 16.9124 13.9848 16.9662 14.1972 16.9662C14.5558 16.9662 14.8819 16.8223 15.166 16.5374L16.894 14.8157C17.029 14.6811 17.234 14.5233 17.4575 14.5233C17.6858 14.5233 17.8842 14.6997 17.9839 14.8064L17.9885 14.8111L20.7784 17.5863C21.179 17.9854 21.1715 18.3381 20.7598 18.765L20.7551 18.7696C20.5595 18.9785 20.3527 19.178 20.1571 19.3655L20.1012 19.4184C19.7891 19.72 19.4677 20.031 19.1678 20.3883C18.7113 20.8756 18.1915 21.0918 17.4836 21.0918C17.4184 21.0918 17.3438 21.0872 17.2693 21.0825C15.8236 20.9897 14.4608 20.4217 13.4332 19.9335C10.6062 18.5691 8.13106 16.6387 6.07877 14.193C4.38524 12.1623 3.24882 10.2764 2.49692 8.25485C2.05165 7.06221 1.87279 6.09695 1.94266 5.22447L1.94301 5.22725Z" fill="black"/>
</svg>
