<svg width="29" height="23" viewBox="0 0 29 23" fill="none" xmlns="http://www.w3.org/2000/svg">
<path d="M29 10.4946H27.1176C27.549 9.6966 27.8575 8.77964 27.9817 7.77494C28.2287 5.49876 27.5189 3.2227 26.0993 1.86217C23.5083 -0.620723 19.2507 -0.620723 16.6583 1.86217L14.5 3.9016L12.3718 1.86217C9.7808 -0.620723 5.52321 -0.620723 2.93082 1.86217C1.51119 3.22258 0.802614 5.37968 1.01832 7.62712L1.11112 8.51404L2.93082 8.36622L2.83802 7.50934C2.68377 5.7944 3.20799 4.1095 4.22631 3.13359C6.1087 1.32972 9.1939 1.32972 11.0749 3.13359L14.4999 6.38562L17.925 3.10344C19.8074 1.29957 22.8926 1.29957 24.7735 3.10344C25.822 4.10814 26.3474 5.82308 26.1618 7.59685C26.0389 8.74937 25.5762 9.7841 24.8964 10.4943H19.4047L18.6334 10.8789L18.0164 11.7959L16.8137 8.9873L15.1169 9.10509L14.0986 12.6528L11.692 5.4986L9.93376 5.55749L8.73108 10.4944H0V12.2382H3.33219L14.4999 23L22.6753 15.2244L25.6989 12.2379L28.9997 12.239L29 10.4946ZM21.3802 14.0133L14.5001 20.5463L5.89339 12.2394H9.44123L10.3354 11.5592L10.9524 9.01627L13.2662 15.9638L15.0245 15.9338L16.1356 12.0316L16.9997 14.0122L18.6037 14.16L19.8991 12.2383L23.1385 12.2395L21.3802 14.0133Z" fill="black"/>
</svg>
