<svg width="21" height="24" viewBox="0 0 21 24" fill="none" xmlns="http://www.w3.org/2000/svg">
<path d="M13.5717 10.1972C14.7331 9.33533 15.4741 8.02715 15.6125 6.59444C15.7509 5.16172 15.2737 3.73765 14.2984 2.6725C13.3233 1.60734 11.9404 1 10.4902 1C9.04004 1 7.65714 1.60729 6.68186 2.6725C5.70657 3.73765 5.22939 5.16172 5.36774 6.59444C5.50612 8.02715 6.24713 9.33533 7.40856 10.1972C6.17662 10.6169 5.04572 11.2858 4.08746 12.1614C3.11757 13.044 2.34252 14.1164 1.81102 15.3111C1.27971 16.506 1.00351 17.7971 1 19.103V22.2143C1 22.4226 1.0835 22.6225 1.23193 22.7698C1.38037 22.9171 1.58177 23 1.79164 23H19.2084C19.4183 23 19.6197 22.9171 19.7681 22.7698C19.9165 22.6225 20 22.4226 20 22.2143V19.2954C20.0008 17.307 19.384 15.3668 18.2338 13.7386C17.0834 12.1106 15.4557 10.874 13.5716 10.1972L13.5717 10.1972ZM10.5001 2.57203C11.4449 2.57203 12.3511 2.94454 13.0191 3.60767C13.6873 4.2706 14.0626 5.17002 14.0626 6.10765C14.0626 7.04528 13.6873 7.9447 13.0191 8.60763C12.3511 9.27076 11.4449 9.64327 10.5001 9.64327C9.55537 9.64327 8.6491 9.27076 7.98113 8.60763C7.31296 7.9447 6.93761 7.04528 6.93761 6.10765C6.93761 5.17002 7.31296 4.2706 7.98113 3.60767C8.6491 2.94454 9.55537 2.57203 10.5001 2.57203ZM18.4168 21.4287H2.58344V19.1031C2.58595 16.8981 3.51909 14.795 5.15636 13.3047C5.69039 12.8199 6.28993 12.4114 6.93761 12.0908V14.8407C6.15099 15.0187 5.44839 15.4565 4.94494 16.0824C4.44163 16.7083 4.16717 17.4851 4.16677 18.286C4.16677 18.5666 4.31773 18.8262 4.56261 18.9664C4.80749 19.1068 5.1094 19.1068 5.35428 18.9664C5.59916 18.8261 5.75011 18.5666 5.75011 18.286C5.75011 17.5843 6.12739 16.9358 6.7397 16.5849C7.352 16.2341 8.10656 16.2341 8.71887 16.5849C9.33118 16.9358 9.70846 17.5843 9.70846 18.286C9.70846 18.5666 9.85941 18.8262 10.1043 18.9664C10.3492 19.1068 10.6511 19.1068 10.896 18.9664C11.1408 18.8261 11.2918 18.5666 11.2918 18.286C11.2914 17.4851 11.0169 16.7083 10.5136 16.0824C10.0101 15.4565 9.30757 15.0187 8.52095 14.8407V11.6076C8.52288 11.5723 8.52288 11.5368 8.52095 11.5015C9.405 11.2729 10.3223 11.1971 11.2325 11.2777C11.6577 11.3158 12.079 11.3907 12.4911 11.5015V14.3575C12.4911 14.6382 12.6421 14.8977 12.887 15.0379C13.132 15.1783 13.4338 15.1783 13.6786 15.0379C13.9237 14.8977 14.0745 14.6381 14.0745 14.3575V12.1065C15.3903 12.7986 16.491 13.8339 17.2582 15.1006C18.0255 16.3672 18.4302 17.8176 18.4286 19.2956L18.4168 21.4287Z" fill="#065BAA" stroke="#065BAA" strokeWidth="0.4"/>
</svg>
