<svg width="19" height="19" viewBox="0 0 19 19" fill="none" xmlns="http://www.w3.org/2000/svg">
<path d="M7.715 11.2851C8.67096 12.1844 9.77005 12.9188 10.9664 13.4586C11.6554 13.7813 12.4757 13.589 12.9502 12.9944L13.64 12.1346C14.1059 11.5546 14.9461 11.4438 15.5459 11.8824L18.4299 13.9925H18.4307C18.7715 14.2422 18.9808 14.6335 18.9987 15.0557C19.0168 15.4778 18.8425 15.8855 18.5233 16.1635L16.3291 18.0779C15.4675 18.8417 14.2971 19.1557 13.1687 18.9266C11.2707 18.5267 8.20122 17.3727 4.91387 14.0861C1.62729 10.7995 0.473246 7.73023 0.0733753 5.83127C-0.155727 4.70283 0.158348 3.53235 0.922071 2.67091L2.83652 0.476724C3.11456 0.158457 3.52213 -0.0166797 3.94431 0.00125446C4.36649 0.0193551 4.75783 0.228683 5.00753 0.569226L7.11758 3.45422C7.55602 4.05403 7.4454 4.89406 6.86535 5.36013L6.00558 6.04995C5.41097 6.52443 5.21871 7.34481 5.54135 8.03378C6.08101 9.22991 6.81558 10.3292 7.7149 11.2851L7.715 11.2851Z" fill="white"/>
</svg>
